PathFileType	4	(X/Y/Z)	Patient4_TMGait_0pt5_02_right_22.trc.trc
DataRate	CameraRate	NumFrames	NumMarkers	Units	OrigDataRate	OrigDataStartFrame	OrigNumFrames
78.212290502793	78.212290502793	5	33	mm	78.212290502793	53	       141
Frame#	Time	Sacral			L.Shoulder			Chest			R.Shoulder			Neck			R.ASIS			L.ASIS			R.Thigh.Superior			R.Thigh.Lateral			R.Thigh.Inferior			R.Patella			L.Thigh.Superior			L.Thigh.Lateral			L.Thigh.Inferior			L.Patella			L.Shank.Superior			L.Shank.Lateral			L.Shank.Inferior			R.Shank.Superior			R.Shank.Lateral			R.Shank.Inferior			R.Heel			R.Midfoot.Superior			R.Midfoot.Lateral			R.Toe			L.Heel			L.Midfoot.Lateral			L.Midfoot.Superior			L.Toe			L.Elbow			L.Wrist			R.Elbow			R.Wrist			
		X1	Y1	Z1	X2	Y2	Z2	X3	Y3	Z3	X4	Y4	Z4	X5	Y5	Z5	X6	Y6	Z6	X7	Y7	Z7	X8	Y8	Z8	X9	Y9	Z9	X10	Y10	Z10	X11	Y11	Z11	X12	Y12	Z12	X13	Y13	Z13	X14	Y14	Z14	X15	Y15	Z15	X16	Y16	Z16	X17	Y17	Z17	X18	Y18	Z18	X19	Y19	Z19	X20	Y20	Z20	X21	Y21	Z21	X22	Y22	Z22	X23	Y23	Z23	X24	Y24	Z24	X25	Y25	Z25	X26	Y26	Z26	X27	Y27	Z27	X28	Y28	Z28	X29	Y29	Z29	X30	Y30	Z30	X31	Y31	Z31	X32	Y32	Z32	X33	Y33	Z33	

53	29.324857142857	460.772634072989	1012.998556959443	525.424745915898	640.584018194769	1440.244009079006	345.704892101356	750.836511408406	1365.110316259871	499.888205597375	678.621493627788	1439.936342033089	679.616847920265	651.002628907395	1497.471596906789	498.152951437454	690.981828683304	940.963323215034	631.822212849587	666.424309234933	966.731264754039	359.642084184397	722.087907771138	738.026641453945	600.656651179028	636.261631243187	633.174701660651	659.189181957817	709.326195741815	577.986477526884	577.123458823710	705.046004174291	490.735637358329	580.849261633755	751.934792592172	787.477759150561	389.142429512679	711.180051101335	661.701825813478	310.771146543271	814.398038148489	601.393336602870	373.809829102614	833.048641476189	515.628153516916	365.915939814638	779.527873312318	443.466565804516	356.000026147198	651.654865838262	371.718065365351	307.123850878328	670.343631980544	242.161157737452	359.047976456679	676.476141058650	403.011722165988	586.850046110665	603.445594600601	299.960512718234	646.581638357727	642.639928144076	205.435234176304	581.643669113644	504.949640294683	42.498420635145	548.280977359797	675.843838416090	96.838268606615	587.186257236571	587.228259538190	36.153110243989	624.320495750199	795.791709982118	42.225140082601	616.288879686906	501.396745760824	133.936154828188	397.569540214228	564.742384009066	107.900173382124	313.451514361376	665.423189898808	137.451783148376	333.025172904351	764.541716527162	47.820869381308	296.443314109675	542.123122657112	1099.258843196975	231.522646689203	555.892572673129	837.496580158519	226.176055915236	698.276994408258	1106.541327037784	820.460994780143	934.238331158989	1010.590444621352	788.675959099842	
54	29.337642857143	459.937698895066	1013.435721814598	526.671882298383	639.073226013699	1440.507323440231	346.418796147220	750.481517626234	1364.918558781127	499.508792180924	680.079006910797	1439.801585281537	679.938783660539	650.881922661598	1497.500574126935	498.818284452884	690.429142711156	940.808586925377	631.522153853904	664.651796370040	967.099897356716	359.445892968495	719.497538654403	737.372779293844	599.998421511545	633.321108528228	633.045937067241	659.293859300057	705.371743459034	577.343130986020	576.870578547975	700.487371679262	490.241635793696	580.762193088605	750.697924293805	788.832586052727	389.269877695573	710.664025387488	662.726197200294	310.836845263625	813.686269702455	603.026734685896	374.405284713539	833.948157180407	518.957906397628	366.325976627820	784.218231034113	445.789225808127	355.796453268364	661.350824832130	366.599667107659	306.181475282251	688.034612075572	238.066511999468	357.867566304855	671.546625506705	402.662837407251	586.798252843074	598.179866249765	299.919354645559	646.622561909661	636.832075173822	205.240755998776	581.604373924309	498.537624439939	42.526698142639	548.301103132109	669.455975385045	96.789104469191	587.243867881330	580.817084552115	36.153393106991	624.331748412108	789.373441661035	42.040544190172	616.362815930911	526.364580210218	118.723001966874	395.830742627998	591.496098050544	97.527157262175	311.673063619443	689.931440209209	133.588742552920	331.531160480500	794.936461239239	51.122007227964	294.693060587383	535.097150006269	1101.048791191315	233.256147922156	544.237475756377	839.145015131778	228.750716223224	706.261631291228	1107.157315539241	820.295982894675	945.833138691958	1024.363163425020	783.431756061606	
55	29.350428571429	459.150456656443	1013.776817069059	527.770054919861	637.596893484447	1440.793764511506	347.083913642213	750.104035744928	1364.676692550948	499.066078754874	681.417009986344	1439.500746379356	680.195200809017	650.734159303374	1497.458641425173	499.479955280343	689.931737974463	940.657934199059	631.074069187913	662.944250425133	967.312676019146	359.074747538537	717.020914877160	736.710850283195	599.395630960301	630.393909586183	632.897318800330	659.365561036148	701.492426998983	576.681883437862	576.667419188231	695.979994032578	489.742643841397	580.692608232532	749.099178948615	789.628271636724	389.255247953115	709.558683123383	663.309291067524	310.703918740169	812.181426305762	604.002655750904	374.936803665095	834.003239257812	521.837466414541	366.692503469688	788.198243481074	447.915508521005	355.620314680637	671.062850477497	361.367122429029	305.027430489358	705.667329490996	234.433934696013	356.791493501685	666.653446220146	402.308230241380	586.745612306476	592.941738430874	299.877406279894	646.652811008592	631.040907153436	205.034811149374	581.565047986740	492.129640335905	42.566626603087	548.324641626617	663.065236002567	96.725150074564	587.272286123288	574.407972973609	36.148836854071	624.324711493435	782.957200618055	41.839060074735	616.434770772528	551.987837057857	104.393003303055	393.849873649421	618.931373632013	87.950801237915	309.995220958233	714.601231238828	130.447770103128	330.395948603018	825.164234127240	55.398599134388	293.995935959406	528.230198268524	1102.979460761542	234.884999766580	533.575241117030	840.996519092662	231.294407515762	714.305135836058	1107.633771165002	819.726582796681	956.611238428195	1038.088777655891	777.719809778049	
56	29.363214285714	458.426506925036	1014.013984632843	528.720608277028	636.177176592187	1441.087559015157	347.672695367449	749.702547050125	1364.395100423902	498.564334373539	682.599691563200	1439.061668598638	680.369769119289	650.555112447599	1497.349722713402	500.103372411597	689.495831742255	940.514542791996	630.511058568995	661.313842109319	967.370187672253	358.559143614389	714.681599302360	736.045720060196	598.870894656241	627.494964053475	632.730146611535	659.404710368792	697.711632271533	576.002505143532	576.519015566465	691.542873788098	489.233901058583	580.634691905377	747.162871119873	789.877689342544	389.117444902276	707.942637887935	663.491253708142	310.347175027539	809.996097571537	604.371419291215	375.367202165217	833.312324113518	524.275504369246	366.996150898136	791.496569373151	449.871131739524	355.472042819111	680.718356325547	356.221999745821	303.698942487181	722.987453636517	231.451897105486	355.870130304317	661.812169590830	401.943981724002	586.687530680857	587.741205728168	299.836506708718	646.669880184176	625.273632674282	204.819334017837	581.523849834945	485.723155955231	42.617973513624	548.354748434939	656.667574582282	96.644566221807	587.261817084432	567.998679022580	36.139052921069	624.300213228094	776.541913992041	41.631139250135	616.504261634339	577.849819671472	91.358253973751	391.720941195765	646.614130159420	79.491232377412	308.504545526305	739.044721487909	128.223997223599	329.671602232426	854.734993390087	60.714683274132	294.404764838503	521.585363619412	1105.005605633118	236.411213566410	523.867933444762	842.966414279064	233.748624246490	722.381138495311	1107.999758522655	818.727476543632	966.558273418431	1051.675973453173	771.582332060040	
57	29.376000000000	457.781110695697	1014.143229962667	529.523554873473	634.831352372054	1441.372360441321	348.157329283304	749.277018119126	1364.085202594939	498.004677223308	683.602608417926	1438.518963402261	680.445484569521	650.340945651772	1497.180903649230	500.651428925253	689.124915433678	940.377281904738	629.861828598718	659.773449247150	967.283351355858	357.929240180215	712.488913602134	735.380762439252	598.424394282236	624.638251070128	632.546914562143	659.406174284822	694.039412290558	575.305915689648	576.414945592808	687.185165022582	488.711237941979	580.574964710090	744.938155343181	789.621981934446	388.870550325301	705.916293572606	663.326415239936	309.758125069730	807.276437834104	604.208345695035	375.658179290293	831.993949197583	526.289924822937	367.221499098638	794.159248397710	451.675157329227	355.340889279269	690.199479754185	351.339221536312	302.260821641493	739.731522784408	229.237204318381	355.134581541964	657.029358570961	401.566829018843	586.614887605313	582.582698861199	299.798897807237	646.669281524457	619.534052020016	204.597858241932	581.477415037647	479.315904949340	42.680097469345	548.391941525137	650.260086490693	96.547010599464	587.205535695045	561.586865196250	36.124423647153	624.260293171497	770.126109474751	41.427393660159	616.570501623832	603.491377050080	79.910336731288	389.575022553080	674.041313107155	72.362369499270	307.277728946335	762.850105097119	127.018547449697	329.360433271519	883.156778162349	67.030510234260	295.830068658309	515.226166478972	1107.076578808484	237.826978564452	515.077342481772	844.979176546830	236.058706540419	730.447860660211	1108.294510325901	817.280025453407	975.667332592880	1065.038032883857	765.065837979425	
